<svg xmlns="http://www.w3.org/2000/svg" xmlns:xlink="http://www.w3.org/1999/xlink" viewBox="0 0 129.08 129.07"><defs><style>.cls-1{fill:#fff;}.cls-2{fill:url(#名称未設定グラデーション_57);}.cls-3{fill:url(#名称未設定グラデーション_65);}.cls-4{fill:url(#名称未設定グラデーション_65-2);}</style><linearGradient id="名称未設定グラデーション_57" x1="19.03" y1="55.06" x2="128.86" y2="55.06" gradientUnits="userSpaceOnUse"><stop offset="0" stop-color="#fa8864"/><stop offset="0.17" stop-color="#fa8f5b"/><stop offset="0.44" stop-color="#fca343"/><stop offset="0.79" stop-color="#fec41b"/><stop offset="1" stop-color="#ffda00"/></linearGradient><linearGradient id="名称未設定グラデーション_65" x1="21.15" y1="55.14" x2="129.08" y2="55.14" gradientUnits="userSpaceOnUse"><stop offset="0" stop-color="#fa8864"/><stop offset="0.23" stop-color="#fa8563"/><stop offset="0.41" stop-color="#fb7b60"/><stop offset="0.58" stop-color="#fb6a5a"/><stop offset="0.74" stop-color="#fc5253"/><stop offset="0.89" stop-color="#fe3449"/><stop offset="1" stop-color="#ff1740"/></linearGradient><linearGradient id="名称未設定グラデーション_65-2" x1="129.08" y1="27.15" x2="129.08" y2="27.15" xlink:href="#名称未設定グラデーション_65"/></defs><title>icon</title><g id="レイヤー_2" data-name="レイヤー 2"><g id="レイヤー_1-2" data-name="レイヤー 1"><rect class="cls-1" width="129.07" height="129.07" rx="12.32" ry="12.32"/><path class="cls-2" d="M78.19,94.75c-.32-2.12-1.15-7-1.29-9.31L61.36,108.12c-1,1.52-12.28,2-12.28,2-18.59,0-30-12.4-30-32.48,0-28.29,19.54-49.72,45.28-49.72,9.84,0,17.25,3,21,8.49,2.29,3.37,3.24,7,3.91,16L113.07,0h4.33a11.66,11.66,0,0,1,11.46,9.58l-37,54h0c0,1.48.07,15.81.07,16.75,0,11.86.94,15,4.85,15,3.23,0,6.6-2,9.56-5.93l6.47,11.18c-5.92,6.07-12.12,8.9-19.81,8.9-5.12,0-9-1.49-11.45-4.45C79.67,102.56,78.86,100.14,78.19,94.75Z"/><path class="cls-1" d="M75.63,76.29a71,71,0,0,1-4.45,6.87,60.28,60.28,0,0,1-5.39,6.6A19.26,19.26,0,0,1,51.37,96c-9.56,0-15.09-6.87-15.09-19.13a41.24,41.24,0,0,1,7.55-24c5.25-7.41,11.85-11.19,19.27-11.19,4.71,0,8.22,1.62,10.51,4.72,1.88,2.56,2.69,6.33,2.69,12.8C76.3,64.43,76,71.3,75.63,76.29Z"/><path class="cls-3" d="M128.86,9.58h0s0,0,0-.06,0-.06,0-.08h0A11.64,11.64,0,0,0,117.4,0h-4.33L56.29,88.31C49,98.17,39,90.81,37.16,84.84l-16,6.43c8.4,24.19,37.15,19.39,40.21,16.85h0l67.72-82.9v-7C129,15.21,129.23,10.7,128.86,9.58Z"/><polygon class="cls-4" points="129.08 29.09 129.08 25.22 129.08 25.22 129.08 29.09"/></g></g></svg>